<svg width="40" height="40" viewBox="0 0 40 40" fill="none" xmlns="http://www.w3.org/2000/svg">
<rect width="40" height="40" rx="8" fill="#00609A"/>
<path d="M23.486 26V20.932C23.486 20.092 23.4953 18.8227 23.514 17.124H23.486C23.15 18.0947 22.758 19.196 22.31 20.428L22.128 20.932L20.28 26H18.796L16.948 20.932L16.766 20.428C16.318 19.196 15.926 18.0947 15.59 17.124H15.562C15.5807 18.8227 15.59 20.092 15.59 20.932V26H14.33V16.032H16.402L18.208 20.946C18.656 22.206 19.0947 23.48 19.524 24.768H19.552C19.9813 23.48 20.42 22.206 20.868 20.946L22.66 16.032H24.746V26H23.486Z" fill="white"/>
</svg>
