<svg width="16" height="16" viewBox="0 0 16 16" fill="none" xmlns="http://www.w3.org/2000/svg">
<path d="M7.20758 1.43915C7.45758 0.67165 8.54341 0.67165 8.79258 1.43915L10.0584 5.33415C10.1129 5.50122 10.2188 5.6468 10.361 5.75007C10.5032 5.85334 10.6743 5.90902 10.8501 5.90915H14.9459C15.7534 5.90915 16.0884 6.94248 15.4359 7.41748L12.1226 9.82415C11.9803 9.92762 11.8743 10.0735 11.82 10.2408C11.7656 10.4082 11.7657 10.5885 11.8201 10.7558L13.0851 14.6508C13.3351 15.4192 12.4559 16.0575 11.8034 15.5825L8.49008 13.1758C8.34767 13.0723 8.17614 13.0165 8.00008 13.0165C7.82402 13.0165 7.65249 13.0723 7.51008 13.1758L4.19675 15.5825C3.54425 16.0575 2.66508 15.4183 2.91508 14.6508L4.18008 10.7558C4.23448 10.5885 4.23451 10.4082 4.18017 10.2408C4.12583 10.0735 4.01991 9.92762 3.87758 9.82415L0.564246 7.41748C-0.0890872 6.94248 0.24758 5.90915 1.05425 5.90915H5.14925C5.32512 5.9092 5.4965 5.8536 5.63885 5.75032C5.7812 5.64703 5.88723 5.50136 5.94175 5.33415L7.20758 1.43915Z" fill="#F3E110"/>
</svg>
